<?xml version="1.0" encoding="utf-8"?>
<!-- Generator: Adobe Illustrator 18.0.0, SVG Export Plug-In . SVG Version: 6.00 Build 0)  -->
<!DOCTYPE svg PUBLIC "-//W3C//DTD SVG 1.1//EN" "http://www.w3.org/Graphics/SVG/1.1/DTD/svg11.dtd">
<svg version="1.1" id="Layer_1" xmlns="http://www.w3.org/2000/svg" xmlns:xlink="http://www.w3.org/1999/xlink" x="0px" y="0px"
	 viewBox="0 0 42 24" enable-background="new 0 0 42 24" xml:space="preserve">
<path id="ARROW__x2F__DOWN_2_" fill-rule="evenodd" clip-rule="evenodd" fill="#FFFFFF" d="M5.3,1L21,16.8L36.9,0.8l0,0
	C37.5,0.3,38.2,0,39,0c1.7,0,3,1.3,3,3c0,0.8-0.3,1.5-0.8,2.1l0,0l-18,18l0,0C22.6,23.6,21.8,24,21,24c0,0,0,0,0,0c0,0,0,0,0,0
	c-0.8,0-1.6-0.4-2.2-0.9l0,0l-18-18l0,0C0.3,4.5,0,3.8,0,3c0-1.7,1.3-3,3-3C3.9,0,4.7,0.4,5.3,1z"/>
</svg>
