<?xml version="1.0" encoding="utf-8"?>
<!-- Generator: Adobe Illustrator 19.2.1, SVG Export Plug-In . SVG Version: 6.00 Build 0)  -->
<svg version="1.1" id="svg3099" xmlns:svg="http://www.w3.org/2000/svg"
	 xmlns="http://www.w3.org/2000/svg" xmlns:xlink="http://www.w3.org/1999/xlink" x="0px" y="0px" viewBox="0 0 228.6 135.9"
	 style="enable-background:new 0 0 228.6 135.9;" xml:space="preserve">
<style type="text/css">
	.st0{fill:#FFFFFF;}
</style>
<g id="layer1" transform="translate(-205.71018,-400.38197)">
	<path id="path168" class="st0" d="M287.2,400.4c-8.6,0-14,6.2-14,14c0,7.5,5.4,14,14,14c8.4,0,13.8-6.5,13.8-14
		C301.1,406.6,295.7,400.4,287.2,400.4"/>
	<path id="path172" class="st0" d="M293.2,443.7h-48.5v-35.9c0-3.3-2.7-6-6-6h-12c-3.3,0-6,2.7-6,6v35.9h-9.1c-3.3,0-6,2.7-6,6v8.2
		c0,3.3,2.7,6,6,6h9.1v46.2c0,17.7,8.1,26.2,26.4,26.2c5.2,0,9.7-0.7,13.9-1.7c2.2-0.5,3.2-2.6,3.1-4c-0.1-3.6-0.5-8.9-0.5-10.6
		c0-1.8-1.3-3.6-4.5-3.2c-2.1,0.3-2.7,0.3-4.6,0.3c-7.5,0-9.8-3-9.8-9.2v-43.8h30.5v64.8c0,3.3,2.7,6,6,6h12c3.3,0,6-2.7,6-6v-79
		C299.3,446.4,296.5,443.7,293.2,443.7"/>
	<path id="path176" class="st0" d="M420.5,508.1c-8.2,0-13.8,5.6-13.8,13.8c0,8.2,5.6,13.8,13.8,13.8c8.2,0,13.8-5.6,13.8-13.8
		C434.3,513.7,428.7,508.1,420.5,508.1"/>
	<path id="path180" class="st0" d="M416.1,457.9v-8.2c0-3.3-2.7-6-6-6h-16.2v-13.4c0-6.3,5.7-9.2,13.2-9.2c1.9,0,2.4,0.2,4.6,0.3
		c3.2,0.1,5-2.2,5-4c0-1.7,0.2-4.4,0.3-8.4c0.1-2.9-2.1-5.5-5.4-6.2c-4.3-0.9-10.1-1-15.3-1c-18.3,0-26.4,8.5-26.4,26.2l-0.1,15.8
		H343v-13.4c0-6.3,5.7-9.2,13.2-9.2c1.9,0,2.4,0.2,4.6,0.3c3.2,0.1,5-2.2,5-4c0-1.7,0.2-4.4,0.3-8.4c0-2.9-2.1-5.5-5.4-6.2
		c-4.3-0.9-10.1-1-15.3-1c-18.3,0-26.4,8.5-26.4,26.2l-0.1,15.8h-9.1c-3.3,0-6,2.7-6,6v8.2c0,3.3,2.7,6,6,6h9.1v64.8
		c0,3.3,2.7,6,6,6h12c3.3,0,6-2.7,6-6l0.1-64.8h26.8v64.8c0,3.3,2.7,6,6,6h12c3.3,0,6-2.7,6-6v-64.8h16.3
		C413.4,463.9,416.1,461.2,416.1,457.9"/>
</g>
</svg>
