<svg xmlns="http://www.w3.org/2000/svg" viewBox="0 0 457.66 155.12"><title>logo_tendril</title><path d="M372.55,455.85H350.43V445.31h56.49v10.54H384.8v56.87H372.55V455.85Z" transform="translate(-168.4 -401.34)"/><path d="M422.78,463.16c14,0,21.46,10.16,21.46,23,0,1.42-.28,4.65-0.28,4.65H410.53c0.76,8.45,7.31,12.82,14.53,12.82,7.79,0,14-5.32,14-5.32l4.65,8.64a30.25,30.25,0,0,1-19.46,6.93c-16,0-26-11.58-26-25.35C398.19,473.6,408.35,463.16,422.78,463.16Zm9.3,19.37c-0.19-6.55-4.27-10.06-9.59-10.06-6.17,0-10.44,3.8-11.58,10.06h21.17Z" transform="translate(-168.4 -401.34)"/><path d="M449.65,464.3h11.58v5.6a29.93,29.93,0,0,1-.19,3.32h0.19a18.78,18.78,0,0,1,17.18-10.06c10.73,0,16.8,5.6,16.8,18.42v31.14h-12V484c0-5.89-1.52-9.87-7.69-9.87-6.46,0-11.2,4.08-13,9.87a20.42,20.42,0,0,0-.85,6.46v22.21H449.65V464.3Z" transform="translate(-168.4 -401.34)"/><path d="M522.37,463.16c10.63,0,14,6.17,14,6.17h0.19s-0.1-1.23-.1-2.75V445.31h12.06v67.41H537.09v-4a24.59,24.59,0,0,1,.19-3.13h-0.19s-4.08,8.26-15.19,8.26c-13.1,0-21.46-10.35-21.46-25.35C500.44,473.13,509.56,463.16,522.37,463.16Zm2.28,40.54c6.27,0,12.15-4.56,12.15-15.29,0-7.5-4-14.9-12.06-14.9-6.65,0-12.15,5.41-12.15,15C512.59,497.72,517.53,503.7,524.65,503.7Z" transform="translate(-168.4 -401.34)"/><path d="M555.42,464.3H567v8.36a33,33,0,0,1-.19,3.42H567c2.18-6.93,8-12.44,15.38-12.44a13.84,13.84,0,0,1,2.18.19v11.87a20.64,20.64,0,0,0-2.85-.19c-5.13,0-10.92,2.94-13.2,10.16a25.94,25.94,0,0,0-1,7.88v19.18H555.42V464.3Z" transform="translate(-168.4 -401.34)"/><path d="M588.46,445.31h12V456h-12V445.31Zm0,19h12.06v48.42H588.46V464.3Z" transform="translate(-168.4 -401.34)"/><path d="M607.35,445.31h12v50.51c0,5.32,1.8,6.64,4.94,6.64,0.95,0,1.8-.09,1.8-0.09v10.54a27.46,27.46,0,0,1-3.8.29c-6.65,0-14.91-1.71-14.91-15.57V445.31Z" transform="translate(-168.4 -401.34)"/><path d="M246.78,401.35a77.56,77.56,0,1,0,76.73,78.38A77.56,77.56,0,0,0,246.78,401.35Zm14.91,47.21A13.49,13.49,0,1,1,248.2,462,13.49,13.49,0,0,1,261.69,448.56Zm-45-20.23h27v67.44h-27V428.33ZM246,529.47a29.22,29.22,0,0,1-29.22-29.22h58.45A29.22,29.22,0,0,1,246,529.47Z" transform="translate(-168.4 -401.34)"/></svg>