<?xml version="1.0" encoding="utf-8"?>
<!-- Generator: Adobe Illustrator 15.1.0, SVG Export Plug-In . SVG Version: 6.00 Build 0)  -->
<!DOCTYPE svg PUBLIC "-//W3C//DTD SVG 1.1//EN" "http://www.w3.org/Graphics/SVG/1.1/DTD/svg11.dtd">
<svg version="1.1" id="Layer_1" xmlns="http://www.w3.org/2000/svg" xmlns:xlink="http://www.w3.org/1999/xlink" x="0px" y="0px"
	 width="74.249px" height="87.75px" viewBox="0 0 74.249 87.75" enable-background="new 0 0 74.249 87.75" xml:space="preserve">
<path d="M6.75,69.75c0,3.729,3.022,6.75,6.75,6.75h6.75v11.25h49.499c-15.75-15.75,4.5-31.375,4.5-51.75
	c0-19.883-16.117-36-35.999-36c-19.126,0-33.751,13.5-36,33.752L0,54h6.75V69.75z M52.874,81H29.249l22.33-7.64
	c0.408-0.143,0.838-0.235,1.295-0.235c2.176,0,3.938,1.762,3.938,3.938S55.05,81,52.874,81z M28.462,68.625
	c0-1.678,1.359-3.037,3.037-3.037s3.037,1.359,3.037,3.037s-1.359,3.037-3.037,3.037S28.462,70.303,28.462,68.625z M39.712,68.625
	c0-1.678,1.359-3.037,3.037-3.037s3.037,1.359,3.037,3.037s-1.359,3.037-3.037,3.037S39.712,70.303,39.712,68.625z M52.873,67.5
	c-1.687-3.375-3.374-5.062-6.749-6.75c3.375-1.688,5.062-3.375,6.749-6.75c1.688,3.375,3.375,5.062,6.751,6.75
	C56.248,62.438,54.562,64.125,52.873,67.5z M38.249,6.75c16.129,0,29.25,13.121,29.25,29.25h-4.5c0-13.647-11.104-24.75-24.75-24.75
	V6.75z M38.249,15.75c11.166,0,20.25,9.084,20.25,20.25h-4.5c0-8.685-7.066-15.75-15.75-15.75V15.75z M38.249,24.75
	c6.203,0,11.25,5.047,11.25,11.25h-4.5c0-3.722-3.027-6.75-6.75-6.75V24.75z M52.874,40.5h14.625l-7.312,12.375L52.874,40.5
	l-7.312,12.375L38.249,40.5H52.874z M40.161,60.75c0,1.678-1.359,3.037-3.037,3.037s-3.037-1.359-3.037-3.037
	s1.359-3.037,3.037-3.037S40.161,59.072,40.161,60.75z M15.749,69.75l7-15.75H12.374l20.25-20.25l-7,15.75h10.375L15.749,69.75z
	 M16.968,18.627c-0.857-0.495-1.152-1.592-0.656-2.447c0.494-0.857,1.59-1.151,2.447-0.657c0.668,0.384,2.15,2.004,5.711,4.932
	c-0.752-4.549-1.414-6.643-1.414-7.414c0-0.989,0.803-1.792,1.793-1.792c0.989,0,1.792,0.803,1.792,1.792
	c0,0.771-0.661,2.865-1.415,7.414c3.561-2.928,5.045-4.548,5.711-4.932c0.857-0.495,1.953-0.201,2.448,0.657
	c0.495,0.855,0.201,1.952-0.655,2.447c-0.667,0.384-2.812,0.861-7.127,2.48c4.314,1.621,6.46,2.096,7.127,2.48
	c0.856,0.495,1.15,1.592,0.655,2.449c-0.495,0.855-1.591,1.149-2.448,0.656c-0.666-0.384-2.15-2.004-5.711-4.933
	c0.754,4.549,1.415,6.644,1.415,7.414c0,0.99-0.803,1.792-1.792,1.792c-0.99,0-1.793-0.802-1.793-1.792
	c0-0.77,0.662-2.865,1.414-7.412c-3.561,2.927-5.043,4.547-5.711,4.931c-0.857,0.494-1.953,0.2-2.447-0.656
	c-0.496-0.857-0.201-1.954,0.656-2.449c0.666-0.384,2.811-0.86,7.127-2.48C19.778,19.488,17.634,19.011,16.968,18.627z M13.5,31.5
	l5.625,5.625L13.5,42.75l-5.625-5.625L13.5,31.5z"/>
</svg>
