<svg xmlns="http://www.w3.org/2000/svg" viewBox="0 0 372.88 133.14"><defs><style>.a{fill:#fff;}.b{opacity:0.5;}</style></defs><title>logo_someplace</title><path d="M328.55,330.66a8.67,8.67,0,0,0,2.24,2,5.75,5.75,0,0,0,3.08.75,7.56,7.56,0,0,0,1.62-.18,4.78,4.78,0,0,0,1.48-.58,3.29,3.29,0,0,0,1.06-1,2.54,2.54,0,0,0,.4-1.44,2.33,2.33,0,0,0-.38-1.37,3.33,3.33,0,0,0-1-.91,5.69,5.69,0,0,0-1.42-.6q-0.8-.22-1.64-0.4-1.46-.31-2.79-0.71a9.1,9.1,0,0,1-2.33-1,4.89,4.89,0,0,1-1.59-1.66,5.11,5.11,0,0,1-.6-2.62,5.22,5.22,0,0,1,.66-2.66,5.77,5.77,0,0,1,1.77-1.91,8.72,8.72,0,0,1,2.48-1.15,10.12,10.12,0,0,1,2.84-.4,9.51,9.51,0,0,1,4.1.88,6.4,6.4,0,0,1,2.95,2.88l-2.88,1.91a5.37,5.37,0,0,0-1.75-1.79,4.84,4.84,0,0,0-2.64-.69,6.14,6.14,0,0,0-1.44.18,4.57,4.57,0,0,0-1.31.53,3.15,3.15,0,0,0-1,.91,2.2,2.2,0,0,0-.38,1.26,1.62,1.62,0,0,0,.42,1.13,3.71,3.71,0,0,0,1.15.82,10.11,10.11,0,0,0,1.68.62,19.73,19.73,0,0,0,2,.44,20.21,20.21,0,0,1,2.61.69,7.58,7.58,0,0,1,2.17,1.13,5,5,0,0,1,1.46,1.77,5.81,5.81,0,0,1,.53,2.61,6,6,0,0,1-.71,3,5.85,5.85,0,0,1-1.88,2,8.2,8.2,0,0,1-2.66,1.13,13,13,0,0,1-3,.36,11.66,11.66,0,0,1-4.58-.82,8.31,8.31,0,0,1-3.48-3Z" transform="translate(-293.43 -213.08)"/><path d="M346.67,325.75a11.28,11.28,0,0,1,.84-4.43,10.49,10.49,0,0,1,2.3-3.43,10.24,10.24,0,0,1,3.5-2.24,12.71,12.71,0,0,1,8.86,0,10.24,10.24,0,0,1,3.5,2.24,10.51,10.51,0,0,1,2.3,3.43,12.08,12.08,0,0,1,0,8.86,10.48,10.48,0,0,1-2.3,3.43,10.22,10.22,0,0,1-3.5,2.24,12.71,12.71,0,0,1-8.86,0,10.21,10.21,0,0,1-3.5-2.24,10.46,10.46,0,0,1-2.3-3.43A11.29,11.29,0,0,1,346.67,325.75Zm3.72,0a8.77,8.77,0,0,0,.51,3,7,7,0,0,0,3.81,4.08,8,8,0,0,0,6.07,0,7,7,0,0,0,3.81-4.08,9.29,9.29,0,0,0,0-6.07,7,7,0,0,0-3.81-4.07,8,8,0,0,0-6.07,0,7,7,0,0,0-3.81,4.07A8.79,8.79,0,0,0,350.39,325.75Z" transform="translate(-293.43 -213.08)"/><path d="M375.06,320.3q0-1.41-.09-2.66t-0.09-2.26h3.28c0,0.56,0,1.12,0,1.68s0,1.14,0,1.73h0.09a6,6,0,0,1,1-1.46,7.21,7.21,0,0,1,1.53-1.26,8.9,8.9,0,0,1,7.2-.8,6.89,6.89,0,0,1,1.88,1,5,5,0,0,1,1.17,1.28q0.42,0.69.69,1.22a9.56,9.56,0,0,1,2.66-2.9,6.72,6.72,0,0,1,3.9-1,10.13,10.13,0,0,1,3.72.6,5.92,5.92,0,0,1,2.44,1.73,6.83,6.83,0,0,1,1.33,2.75,15.1,15.1,0,0,1,.4,3.61v12.58h-3.45v-12.4a9.79,9.79,0,0,0-.22-2.08,4.81,4.81,0,0,0-.8-1.82,4.19,4.19,0,0,0-1.55-1.29,5.55,5.55,0,0,0-2.48-.49,5,5,0,0,0-2.08.44,5.25,5.25,0,0,0-1.71,1.24,5.83,5.83,0,0,0-1.15,1.93,7.12,7.12,0,0,0-.42,2.5v12h-3.46V324.38a9.47,9.47,0,0,0-.93-4.89,3.36,3.36,0,0,0-3.06-1.44,6.75,6.75,0,0,0-2.9.57,5.15,5.15,0,0,0-2,1.64,7.31,7.31,0,0,0-1.15,2.52,13,13,0,0,0-.38,3.23v10.1h-3.45V320.3Z" transform="translate(-293.43 -213.08)"/><path d="M432.21,332.35a10.53,10.53,0,0,1-4.08,3.34,12.92,12.92,0,0,1-5.14,1,10.74,10.74,0,0,1-4.39-.86,9.88,9.88,0,0,1-3.3-2.33,10.2,10.2,0,0,1-2.08-3.46,12.25,12.25,0,0,1-.73-4.25,11.87,11.87,0,0,1,.8-4.41,10.21,10.21,0,0,1,2.21-3.46,10,10,0,0,1,3.37-2.24,11.13,11.13,0,0,1,4.25-.8,10.57,10.57,0,0,1,4,.73,8.62,8.62,0,0,1,3.12,2.13,9.55,9.55,0,0,1,2,3.41,13.78,13.78,0,0,1,.71,4.58v1.11H416.21a7.25,7.25,0,0,0,.64,2.55,7.39,7.39,0,0,0,1.44,2.13,6.66,6.66,0,0,0,2.08,1.44,6.38,6.38,0,0,0,2.61.53,8.26,8.26,0,0,0,3.81-.8,8.65,8.65,0,0,0,2.79-2.35Zm-3-8.46a6,6,0,0,0-1.73-4.25A6.21,6.21,0,0,0,423,318a6.38,6.38,0,0,0-6.78,5.85h13Z" transform="translate(-293.43 -213.08)"/><path d="M439,315.38h3.45v3h0.09a10.18,10.18,0,0,1,3.3-2.61,9.21,9.21,0,0,1,4.14-.93,11.75,11.75,0,0,1,4.45.82A9.93,9.93,0,0,1,457.9,318a10.52,10.52,0,0,1,2.21,3.46,12.21,12.21,0,0,1,0,8.68,10.68,10.68,0,0,1-2.19,3.46,9.92,9.92,0,0,1-3.3,2.28,10.2,10.2,0,0,1-4.08.82,9.59,9.59,0,0,1-4.9-1.22,7.89,7.89,0,0,1-3.08-3h-0.09v13.78H439V315.38Zm3.45,10.37a8.77,8.77,0,0,0,.51,3,7,7,0,0,0,3.81,4.08,8,8,0,0,0,6.07,0,7,7,0,0,0,3.81-4.08,9.29,9.29,0,0,0,0-6.07,7,7,0,0,0-3.81-4.07,8,8,0,0,0-6.07,0,7,7,0,0,0-3.81,4.07A8.79,8.79,0,0,0,442.48,325.75Z" transform="translate(-293.43 -213.08)"/><path d="M466.58,302.63H470v33.49h-3.46V302.63Z" transform="translate(-293.43 -213.08)"/><path d="M477.52,318a9.71,9.71,0,0,1,3.79-2.41,13.25,13.25,0,0,1,4.45-.78q4.61,0,6.64,2.17t2,6.6v8.9q0,0.88.09,1.84t0.22,1.75h-3.32a7.15,7.15,0,0,1-.2-1.57q0-.86,0-1.53h-0.09a8.09,8.09,0,0,1-2.72,2.61,7.84,7.84,0,0,1-4.1,1,10.85,10.85,0,0,1-3-.4,7.49,7.49,0,0,1-2.44-1.17,5.79,5.79,0,0,1-1.66-1.93,5.51,5.51,0,0,1-.62-2.66,5.77,5.77,0,0,1,1.33-4,8.07,8.07,0,0,1,3.3-2.17,16.26,16.26,0,0,1,4.25-.88q2.28-.18,4.19-0.18H491V322.6a4.24,4.24,0,0,0-1.35-3.41,5.66,5.66,0,0,0-3.79-1.15,10.11,10.11,0,0,0-3.3.55,7.92,7.92,0,0,0-2.86,1.71Zm10,8.11a12.42,12.42,0,0,0-5.27.93,3.16,3.16,0,0,0-1.95,3.06,3,3,0,0,0,1.31,2.77,6,6,0,0,0,3.26.82,6.35,6.35,0,0,0,2.64-.51,5.53,5.53,0,0,0,1.88-1.35,5.82,5.82,0,0,0,1.15-2,8,8,0,0,0,.44-2.41v-1.33h-3.46Z" transform="translate(-293.43 -213.08)"/><path d="M516.41,320.56a7,7,0,0,0-2.39-1.93,6.64,6.64,0,0,0-2.83-.6,7.37,7.37,0,0,0-3.06.6,5.88,5.88,0,0,0-2.19,1.66,7.41,7.41,0,0,0-1.31,2.46,9.84,9.84,0,0,0-.44,3,8.65,8.65,0,0,0,.51,3,7.94,7.94,0,0,0,1.42,2.46,6.39,6.39,0,0,0,2.19,1.66,6.74,6.74,0,0,0,2.88.6,6.12,6.12,0,0,0,5.27-2.57l2.57,2.44a9,9,0,0,1-3.54,2.53,12.22,12.22,0,0,1-8.68,0,9.49,9.49,0,0,1-3.39-2.26,10.42,10.42,0,0,1-2.17-3.46,12.66,12.66,0,0,1,0-8.73,10.21,10.21,0,0,1,2.19-3.46,10,10,0,0,1,3.39-2.28,11.28,11.28,0,0,1,4.36-.82,12,12,0,0,1,4.36.8,9.56,9.56,0,0,1,3.61,2.48Z" transform="translate(-293.43 -213.08)"/><path d="M542.41,332.35a10.53,10.53,0,0,1-4.07,3.34,12.92,12.92,0,0,1-5.14,1,10.73,10.73,0,0,1-4.38-.86,9.87,9.87,0,0,1-3.3-2.33,10.21,10.21,0,0,1-2.08-3.46,12.27,12.27,0,0,1-.73-4.25,11.88,11.88,0,0,1,.8-4.41,10.21,10.21,0,0,1,2.21-3.46,10,10,0,0,1,3.37-2.24,11.13,11.13,0,0,1,4.25-.8,10.57,10.57,0,0,1,4,.73,8.61,8.61,0,0,1,3.12,2.13,9.55,9.55,0,0,1,2,3.41,13.79,13.79,0,0,1,.71,4.58v1.11H526.42a7.24,7.24,0,0,0,.64,2.55,7.37,7.37,0,0,0,1.44,2.13,6.65,6.65,0,0,0,2.08,1.44,6.37,6.37,0,0,0,2.61.53,8.26,8.26,0,0,0,3.81-.8,8.65,8.65,0,0,0,2.79-2.35Zm-3-8.46a6,6,0,0,0-1.73-4.25A6.2,6.2,0,0,0,533.2,318a6.38,6.38,0,0,0-6.78,5.85h13Z" transform="translate(-293.43 -213.08)"/><path d="M558.18,320.3q0-1.41-.09-2.66T558,315.38h3.28c0,0.56,0,1.12,0,1.68s0,1.14,0,1.73h0.09a6,6,0,0,1,1-1.46,7.2,7.2,0,0,1,1.53-1.26,8.24,8.24,0,0,1,4.38-1.22,9.13,9.13,0,0,1,3.52.62,6.62,6.62,0,0,1,2.46,1.73,7,7,0,0,1,1.44,2.68,12,12,0,0,1,.46,3.43v12.8H572.8V323.67a6.63,6.63,0,0,0-1.15-4.12,4.23,4.23,0,0,0-3.59-1.51,6.75,6.75,0,0,0-2.9.57,5.15,5.15,0,0,0-2,1.64,7.31,7.31,0,0,0-1.15,2.52,12.92,12.92,0,0,0-.38,3.23v10.1h-3.46V320.3Z" transform="translate(-293.43 -213.08)"/><path d="M583.21,307.28a2.47,2.47,0,0,1,.73-1.77,2.52,2.52,0,0,1,3.59,0A2.55,2.55,0,1,1,583.21,307.28Zm0.8,8.11h3.46v20.73H584V315.38Z" transform="translate(-293.43 -213.08)"/><path d="M610,320.56a7,7,0,0,0-2.39-1.93,6.63,6.63,0,0,0-2.83-.6,7.38,7.38,0,0,0-3.06.6,5.88,5.88,0,0,0-2.19,1.66,7.43,7.43,0,0,0-1.31,2.46,9.84,9.84,0,0,0-.44,3,8.66,8.66,0,0,0,.51,3,7.94,7.94,0,0,0,1.42,2.46,6.39,6.39,0,0,0,2.19,1.66,6.74,6.74,0,0,0,2.88.6,6.13,6.13,0,0,0,5.27-2.57l2.57,2.44a9,9,0,0,1-3.54,2.53,12.22,12.22,0,0,1-8.68,0,9.48,9.48,0,0,1-3.39-2.26,10.42,10.42,0,0,1-2.17-3.46,12.68,12.68,0,0,1,0-8.73A10.24,10.24,0,0,1,597,318a10,10,0,0,1,3.39-2.28,11.28,11.28,0,0,1,4.36-.82,12,12,0,0,1,4.36.8,9.55,9.55,0,0,1,3.61,2.48Z" transform="translate(-293.43 -213.08)"/><path d="M635.08,332.35a10.53,10.53,0,0,1-4.08,3.34,12.92,12.92,0,0,1-5.14,1,10.74,10.74,0,0,1-4.39-.86,9.88,9.88,0,0,1-3.3-2.33A10.18,10.18,0,0,1,616.1,330a12.25,12.25,0,0,1-.73-4.25,11.88,11.88,0,0,1,.8-4.41,10.21,10.21,0,0,1,2.21-3.46,10,10,0,0,1,3.37-2.24,11.13,11.13,0,0,1,4.25-.8,10.57,10.57,0,0,1,4,.73,8.63,8.63,0,0,1,3.12,2.13,9.55,9.55,0,0,1,2,3.41,13.79,13.79,0,0,1,.71,4.58v1.11H619.09a7.24,7.24,0,0,0,.64,2.55,7.38,7.38,0,0,0,1.44,2.13,6.65,6.65,0,0,0,2.08,1.44,6.38,6.38,0,0,0,2.61.53,8.26,8.26,0,0,0,3.81-.8,8.67,8.67,0,0,0,2.79-2.35Zm-3-8.46a6,6,0,0,0-1.73-4.25,6.21,6.21,0,0,0-4.52-1.59,6.38,6.38,0,0,0-6.78,5.85h13Z" transform="translate(-293.43 -213.08)"/><polygon class="a" points="288.38 50.4 286.06 61.4 283.75 72.4 287.82 72.4 287.82 80.69 289 80.69 289 72.4 293.01 72.4 290.7 61.4 288.38 50.4"/><polygon class="a" points="304.42 50.4 302.1 61.4 299.78 72.4 303.86 72.4 303.86 80.69 305.04 80.69 305.04 72.4 309.05 72.4 306.74 61.4 304.42 50.4"/><circle cx="105.26" cy="9.94" r="9.94"/><polygon class="b" points="308.56 70.09 309.05 72.4 305.04 72.4 305.04 80.69 303.86 80.69 303.86 72.4 299.78 72.4 301.48 64.33 289.21 54.35 290.7 61.4 293.01 72.4 289 72.4 289 80.69 287.82 80.69 287.82 72.4 283.75 72.4 286.06 61.4 287.79 53.2 277.32 44.68 262.01 32.22 203.84 54.36 163.24 18.65 131.45 46.6 78.45 27.7 0 82.96 324.38 82.96 308.56 70.09"/><path d="M603.94,245.3l-58.17,22.14-40.6-35.71-31.79,28-53-18.9L341.93,296H666.31Zm-21.51,40.17v8.3h-1.18v-8.3h-4.08l2.31-11,2.32-11,2.32,11,2.32,11h-4Zm16,0v8.3h-1.18v-8.3h-4.08l2.32-11,2.32-11,2.32,11,2.31,11h-4Z" transform="translate(-293.43 -213.08)"/></svg>