<?xml version="1.0" encoding="utf-8"?>
<!-- Generator: Adobe Illustrator 18.0.0, SVG Export Plug-In . SVG Version: 6.00 Build 0)  -->
<!DOCTYPE svg PUBLIC "-//W3C//DTD SVG 1.1//EN" "http://www.w3.org/Graphics/SVG/1.1/DTD/svg11.dtd">
<svg version="1.1" id="Layer_1" xmlns="http://www.w3.org/2000/svg" xmlns:xlink="http://www.w3.org/1999/xlink" x="0px" y="0px"
	 viewBox="0 0 127.3 81.8" enable-background="new 0 0 127.3 81.8" xml:space="preserve">
<path fill="#FFFFFF" d="M119.5,0H7.6C3.5,0,0,3.5,0,7.6v66.6c0,4.2,3.5,7.6,7.6,7.6h30.1c2.4,0,4.1-1.4,5.2-2.9l11.6-22.8
	c0.2-0.2,0.3-0.5,0.5-0.8c0.5-0.9,1.1-1.8,1.7-2.6c1.7-2.4,3.8-4,6.9-4l0,0l0,0c3.1,0,5.2,1.7,6.9,4c0.6,0.8,1.2,1.7,1.7,2.6
	c0.2,0.2,0.3,0.5,0.5,0.8l11.6,22.8c1.1,1.4,2.8,2.9,5.2,2.9h30.1c4.2,0,7.6-3.5,7.6-7.6V7.6C127.3,3.5,123.8,0,119.5,0z M34.4,53.6
	c-8.3,0.1-15-7.4-13.4-16.1c1-5.3,5.3-9.6,10.5-10.5c0.7-0.2,1.5-0.2,2.1-0.2c0.2,0,0.4,0,0.6,0s0.5,0,0.7,0c0.7,0,1.4,0.1,2.1,0.2
	c5.4,0.9,9.7,5.3,10.6,10.5C49.4,46.2,42.7,53.7,34.4,53.6z M92.9,53.6c-8.4,0.2-15.1-7.4-13.5-16.1c1-5.3,5.3-9.6,10.6-10.6
	c0.7-0.2,1.4-0.2,2.1-0.2c0.2,0,0.5,0,0.7,0s0.4,0,0.6,0c0.7,0,1.4,0.1,2.1,0.2c5.3,1,9.6,5.3,10.6,10.6
	C107.9,46.2,101.2,53.7,92.9,53.6z"/>
</svg>
