<svg xmlns="http://www.w3.org/2000/svg" viewBox="0 0 716.64 135.9"><defs><style>.a{fill:#fff;}</style></defs><title>ribbon_tiff</title><path class="a" d="M444,62.19c-8.6,0-14,6.2-14,14,0,7.5,5.4,14,14,14,8.4,0,13.8-6.5,13.8-14,0.1-7.8-5.3-14-13.8-14" transform="translate(-362.44 -62.19)"/><path class="a" d="M450,105.49h-48.5V69.59a6,6,0,0,0-6-6h-12a6,6,0,0,0-6,6v35.9h-9.1a6,6,0,0,0-6,6v8.2a6,6,0,0,0,6,6h9.1v46.2c0,17.7,8.1,26.2,26.4,26.2a58.76,58.76,0,0,0,13.9-1.7,4,4,0,0,0,3.1-4c-0.1-3.6-.5-8.9-0.5-10.6s-1.3-3.6-4.5-3.2a24.76,24.76,0,0,1-4.6.3c-7.5,0-9.8-3-9.8-9.2v-43.8H432v64.8a6,6,0,0,0,6,6h12a6,6,0,0,0,6-6v-79a6,6,0,0,0-6-6.2" transform="translate(-362.44 -62.19)"/><path class="a" d="M577.34,169.89c-8.2,0-13.8,5.6-13.8,13.8s5.6,13.8,13.8,13.8,13.8-5.6,13.8-13.8-5.6-13.8-13.8-13.8" transform="translate(-362.44 -62.19)"/><path class="a" d="M572.94,119.69v-8.2a6,6,0,0,0-6-6h-16.2V92.09c0-6.3,5.7-9.2,13.2-9.2,1.9,0,2.4.2,4.6,0.3,3.2,0.1,5-2.2,5-4s0.2-4.4.3-8.4c0.1-2.9-2.1-5.5-5.4-6.2-4.3-.9-10.1-1-15.3-1-18.3,0-26.4,8.5-26.4,26.2l-0.1,15.8h-26.8V92.19c0-6.3,5.7-9.2,13.2-9.2,1.9,0,2.4.2,4.6,0.3,3.2,0.1,5-2.2,5-4s0.2-4.4.3-8.4a6.46,6.46,0,0,0-5.4-6.2c-4.3-.9-10.1-1-15.3-1-18.3,0-26.4,8.5-26.4,26.2l-0.1,15.8h-9.1a6,6,0,0,0-6,6v8.2a6,6,0,0,0,6,6h9.1v64.8a6,6,0,0,0,6,6h12a6,6,0,0,0,6-6l0.1-64.8h26.8v64.8a6,6,0,0,0,6,6h12a6,6,0,0,0,6-6v-64.8h16.3a6.33,6.33,0,0,0,6-6.2" transform="translate(-362.44 -62.19)"/><path class="a" d="M706.56,115.58L714,91.88h4.46l-9.71,31.19h-3.83L697.7,99.63l-7.22,23.44h-3.83l-9.71-31.19h4.46l7.44,23.7,7-22.68h3.65Z" transform="translate(-362.44 -62.19)"/><path class="a" d="M737.13,91.39A16.08,16.08,0,1,1,721,107.48,16.15,16.15,0,0,1,737.13,91.39Zm0,28.16a12.08,12.08,0,1,0-11.63-12.08A11.77,11.77,0,0,0,737.13,119.55Z" transform="translate(-362.44 -62.19)"/><path class="a" d="M759.68,123.07V91.88h13c6,0,9.4,4.54,9.4,9.8,0,4.63-2.67,8.51-7.35,9.4,0.31,3.39,2.45,8.69,5.93,8.69a5.26,5.26,0,0,0,3.65-1.43l1.56,3a7.52,7.52,0,0,1-5.48,2.18c-7.31,0-9.58-8.51-9.89-12.3h-6.37v11.81h-4.46Zm12.08-15.37c3.56,0,5.7-2.5,5.7-6.06s-2.18-6.1-5.7-6.1h-7.62V107.7h7.62Z" transform="translate(-362.44 -62.19)"/><path class="a" d="M809,123.07H790.25V91.88h4.46v27.54H809v3.65Z" transform="translate(-362.44 -62.19)"/><path class="a" d="M823.94,123.07H814V91.88h9.94c10,0,16,7,16,15.59S833.92,123.07,823.94,123.07Zm0-27.54h-5.48v23.88h5.48c7.13,0,11.5-5.35,11.5-11.94S831.06,95.54,823.94,95.54Z" transform="translate(-362.44 -62.19)"/><path class="a" d="M858.2,123.07V91.88h12.48c6,0,9.4,4.54,9.4,9.8s-3.47,9.58-9.4,9.58h-8v11.81H858.2Zm11.54-15.37c3.56,0,5.7-2.5,5.7-6.06s-2.18-6.1-5.7-6.1h-7.08V107.7h7.08Z" transform="translate(-362.44 -62.19)"/><path class="a" d="M886,123.07V91.88h13c6,0,9.4,4.54,9.4,9.8,0,4.63-2.67,8.51-7.35,9.4,0.31,3.39,2.45,8.69,5.93,8.69a5.26,5.26,0,0,0,3.65-1.43l1.56,3a7.53,7.53,0,0,1-5.48,2.18c-7.31,0-9.58-8.51-9.89-12.3h-6.37v11.81H886ZM898,107.7c3.56,0,5.7-2.5,5.7-6.06s-2.18-6.1-5.7-6.1h-7.62V107.7H898Z" transform="translate(-362.44 -62.19)"/><path class="a" d="M936.36,123.07H916.53V91.88h19.83v3.65H921V106H934.4v3.65H921v9.8h15.37v3.65Z" transform="translate(-362.44 -62.19)"/><path class="a" d="M948.17,98.48L946,123.07h-4.5l2.94-31.19h5l10.38,24.86,10.38-24.86h5l2.94,31.19h-4.5l-2.14-24.59-10,24.19h-3.3Z" transform="translate(-362.44 -62.19)"/><path class="a" d="M990,123.07h-4.46V91.88H990v31.19Z" transform="translate(-362.44 -62.19)"/><path class="a" d="M1018.53,123.07H998.7V91.88h19.83v3.65h-15.37V106h13.41v3.65h-13.41v9.8h15.37v3.65Z" transform="translate(-362.44 -62.19)"/><path class="a" d="M1025,123.07V91.88h13c6,0,9.4,4.54,9.4,9.8,0,4.63-2.67,8.51-7.35,9.4,0.31,3.39,2.45,8.69,5.93,8.69a5.26,5.26,0,0,0,3.65-1.43l1.56,3a7.52,7.52,0,0,1-5.48,2.18c-7.31,0-9.58-8.51-9.89-12.3h-6.37v11.81H1025Zm12.08-15.37c3.56,0,5.7-2.5,5.7-6.06s-2.18-6.1-5.7-6.1h-7.62V107.7h7.62Z" transform="translate(-362.44 -62.19)"/><path class="a" d="M1075.43,123.07h-19.83V91.88h19.83v3.65h-15.37V106h13.41v3.65h-13.41v9.8h15.37v3.65Z" transform="translate(-362.44 -62.19)"/><path class="a" d="M703.66,160.3c0,9.54-4.68,14.26-13,14.26-8.91,0-12-6-12-11a9.56,9.56,0,0,1,1.56-5.21h6.37a9.36,9.36,0,0,0-1.38,4.72c0,2.67,1.47,5.66,5.39,5.66,4.54,0,6.15-2.94,6.15-8.47V142.84h6.91V160.3Z" transform="translate(-362.44 -62.19)"/><path class="a" d="M736.63,142.88v19.38c0,8-5.93,12.3-12.92,12.3s-12.88-4.28-12.88-12.3V142.88h6.91v19.38c0,4.32,2.76,6.51,6,6.51s6-2.18,6-6.51V142.88h6.91Z" transform="translate(-362.44 -62.19)"/><path class="a" d="M751.07,155.09V174h-6.91V142.88h5.3l13.72,18.8v-18.8h6.91v31.19h-5.26Z" transform="translate(-362.44 -62.19)"/><path class="a" d="M778,174.07V142.88h20.72v5.48H784.94V156h12v5.48h-12v7.08h13.81v5.48H778Z" transform="translate(-362.44 -62.19)"/><path class="a" d="M824.64,168.86c1.83-.22,4.5-0.27,4.86-0.27h8.91v5.48H815.55l-0.67-4.1,11.85-10.92c2.05-1.78,4.19-4.23,4.19-6.59,0-2.76-1.87-4.41-4.9-4.41-4.05,0-5.12,2.85-5.12,4.81h-6.51c0-4.1,2.94-10.47,11.63-10.47,6.82,0,11.45,3.88,11.45,10,0,4.86-3.47,8.47-6.46,11Z" transform="translate(-362.44 -62.19)"/><path class="a" d="M841.53,166.27v-4.05l16.75-19.34h4.59V160.7h6.19v5.57h-6.19v7.8H856.1v-7.8H841.53Zm14.57-5.57v-8l-7,8h7Z" transform="translate(-362.44 -62.19)"/><path class="a" d="M873.35,157.41h15.91v5.35H873.35v-5.35Z" transform="translate(-362.44 -62.19)"/><path class="a" d="M903.65,168.86c1.83-.22,4.5-0.27,4.86-0.27h8.91v5.48H894.56l-0.67-4.1,11.85-10.92c2-1.78,4.19-4.23,4.19-6.59,0-2.76-1.87-4.41-4.9-4.41-4.05,0-5.12,2.85-5.12,4.81h-6.5c0-4.1,2.94-10.47,11.63-10.47,6.82,0,11.45,3.88,11.45,10,0,4.86-3.48,8.47-6.46,11Z" transform="translate(-362.44 -62.19)"/><path class="a" d="M928.47,156.43h0.18a9.28,9.28,0,0,1,6.91-3.12c5.61,0,11.45,3.83,11.45,10.51,0,6.19-5,10.74-12.3,10.74-8,0-13.05-6.28-13.05-15.37,0-9.31,4.63-16.8,13.77-16.8A14.2,14.2,0,0,1,946.29,147l-4.05,3.7a8.86,8.86,0,0,0-6.55-2.54C932.66,148.14,928.82,150.77,928.47,156.43Zm0.4,7.08a5.42,5.42,0,0,0,5.66,5.44c3.12,0,5.75-2.23,5.75-5.17s-2.14-5.21-5.61-5.21C930.65,158.56,928.87,161,928.87,163.51Z" transform="translate(-362.44 -62.19)"/><path class="a" d="M950.35,178.84c2.23-.8,4.41-3.21,4.41-5.12a3.43,3.43,0,0,1-3.43-3.25c-0.09-1.92,1.2-3.61,3.79-3.61,3,0,3.74,2.9,3.74,4.32,0,3.83-2.85,8.78-7,10.11Z" transform="translate(-362.44 -62.19)"/><path class="a" d="M984.79,168.86c1.83-.22,4.5-0.27,4.86-0.27h8.91v5.48H975.7L975,170l11.85-10.92c2-1.78,4.19-4.23,4.19-6.59,0-2.76-1.87-4.41-4.9-4.41-4.05,0-5.12,2.85-5.12,4.81h-6.5c0-4.1,2.94-10.47,11.63-10.47,6.82,0,11.45,3.88,11.45,10,0,4.86-3.48,8.47-6.46,11Z" transform="translate(-362.44 -62.19)"/><path class="a" d="M1016.61,174.52c-8.64,0-13.86-7.17-13.86-16s5.21-16.08,13.86-16.08,13.95,7.17,13.95,16.08S1025.21,174.52,1016.61,174.52Zm0-26.73c-4.5,0-7.22,4.77-7.22,10.69s2.72,10.65,7.22,10.65,7.31-4.77,7.31-10.65S1021.11,147.78,1016.61,147.78Z" transform="translate(-362.44 -62.19)"/><path class="a" d="M1033.27,147.92l11.27-5h3.79v31.19h-6.77V150.63c-2,.89-4.95,1.78-6.59,2.5Z" transform="translate(-362.44 -62.19)"/><path class="a" d="M1060.54,156.43h0.18a9.28,9.28,0,0,1,6.91-3.12c5.61,0,11.45,3.83,11.45,10.51,0,6.19-5,10.74-12.3,10.74-8,0-13.05-6.28-13.05-15.37,0-9.31,4.63-16.8,13.77-16.8a14.2,14.2,0,0,1,10.87,4.59l-4.05,3.7a8.86,8.86,0,0,0-6.55-2.54C1064.73,148.14,1060.9,150.77,1060.54,156.43Zm0.4,7.08a5.42,5.42,0,0,0,5.66,5.44c3.12,0,5.75-2.23,5.75-5.17s-2.14-5.21-5.61-5.21C1062.73,158.56,1060.94,161,1060.94,163.51Z" transform="translate(-362.44 -62.19)"/></svg>