# This file uses centimeters as units for non-parametric coordinates.

mtllib diamond_C_MODEL.mtl
g default
v -0.021026 -1.705934 -0.003705
v 0.062000 1.609623 0.045173
v 0.149172 0.869231 0.203357
v -0.269474 0.822070 0.153085
v -0.264812 0.954295 -0.260357
v 0.189335 1.021015 -0.220406
v 0.272648 0.443044 0.234201
v -0.233729 0.378672 0.269031
v -0.351011 0.376884 -0.384416
v 0.385495 0.249054 -0.496638
v 0.524093 -0.191410 0.381361
v -0.344302 -0.254741 0.336536
v -0.289345 -0.109079 -0.400104
v 0.515647 -0.052596 -0.494389
v 0.287190 -0.707214 0.365299
v -0.394982 -0.752779 0.267536
v -0.271729 -0.675076 -0.323803
v 0.350992 -0.603961 -0.363760
v 0.123510 -1.143252 0.167747
v -0.300260 -1.172253 0.202046
v -0.264095 -1.196511 -0.281310
v 0.117147 -1.205942 -0.300808
v -0.086091 0.869604 0.282003
v 0.019460 0.380039 0.553028
v -0.069803 -0.155821 0.486088
v 0.026502 -0.642558 0.560788
v -0.148289 -1.052866 0.266542
v -0.262857 0.782371 -0.098545
v -0.405673 0.440364 -0.070043
v -0.521751 -0.276747 -0.151167
v -0.438423 -0.786122 -0.047045
v -0.411139 -1.152003 -0.024533
v 0.019059 1.313785 -0.356569
v 0.107204 0.455584 -0.513788
v -0.055100 -0.048142 -0.621623
v 0.099032 -0.616770 -0.559615
v -0.013173 -1.325893 -0.369263
v 0.229885 0.896500 -0.057528
v 0.414295 0.342196 -0.138671
v 0.621116 -0.157034 -0.225903
v 0.477237 -0.729501 -0.121392
v 0.194746 -1.250601 -0.039825
vt 0.724515 0.247363
vt 0.652883 0.344620
vt 0.421614 0.116184
vt 0.213110 0.165276
vt 0.896588 0.361743
vt 0.803544 0.375978
vt 0.728234 0.376242
vt 0.346838 0.164335
vt 0.275076 0.177407
vt 0.734904 0.918196
vt 0.606039 0.840415
vt 0.674023 0.825667
vt 0.267376 0.565484
vt 0.338908 0.582438
vt 0.881815 0.840901
vt 0.193544 0.579482
vt 0.740782 0.801612
vt 0.825887 0.798512
vt 0.634150 0.706194
vt 0.268057 0.479915
vt 0.957502 0.735703
vt 0.156631 0.493162
vt 0.740174 0.708928
vt 0.859351 0.712555
vt 0.501609 0.518713
vt 0.611606 0.609933
vt 0.270679 0.379728
vt 0.377059 0.485961
vt 0.144072 0.385468
vt 0.857817 0.620628
vt 0.486270 0.595015
vt 0.610957 0.497361
vt 0.395265 0.271299
vt 0.399052 0.373536
vt 0.020158 0.381182
vt 0.153758 0.272831
vt 0.731180 0.616274
vt 0.833037 0.512651
vt 0.956313 0.466157
vt 0.718000 0.508679
vt 0.507528 0.257887
vt 0.270855 0.288245
vt 0.112504 0.141318
vt 0.278225 0.018950
vt 0.050855 0.243843
vt 0.979842 0.601234
vt 0.049209 0.517268
vt 0.135745 0.613427
vt 0.277685 0.700512
vt 0.581240 0.334765
vt 0.512519 0.472987
vt 0.518669 0.386055
vt 0.514231 0.726576
vt 0.405897 0.627225
vn 0.221142 -0.335795 0.915608
vn 0.221142 -0.335795 0.915608
vn 0.221142 -0.335795 0.915608
vn -0.520063 -0.586510 -0.620919
vn -0.520063 -0.586510 -0.620919
vn -0.520063 -0.586510 -0.620919
vn 0.844702 -0.425991 -0.324054
vn 0.844702 -0.425991 -0.324054
vn 0.844702 -0.425991 -0.324054
vn -0.776936 -0.534668 0.332416
vn -0.776936 -0.534668 0.332416
vn -0.776936 -0.534668 0.332416
vn 0.308624 0.233347 0.922117
vn 0.308624 0.233347 0.922118
vn 0.308624 0.233347 0.922117
vn -0.922504 0.376804 -0.083702
vn -0.922504 0.376803 -0.083702
vn -0.922504 0.376803 -0.083702
vn -0.784607 0.536310 -0.311069
vn -0.784606 0.536310 -0.311069
vn -0.784607 0.536310 -0.311069
vn 0.969650 0.236956 -0.060260
vn 0.969650 0.236956 -0.060260
vn 0.969650 0.236956 -0.060260
vn 0.541484 0.370838 0.754502
vn 0.604603 0.433597 0.668168
vn 0.313260 0.158524 0.936343
vn -0.921992 0.378015 -0.083880
vn -0.929326 0.129445 0.345828
vn -0.947321 0.185320 0.261226
vn -0.407641 0.153360 -0.900172
vn -0.357900 0.196867 -0.912771
vn -0.302012 0.243134 -0.921778
vn 0.948622 0.303671 -0.088880
vn 0.944418 0.295676 -0.143702
vn 0.943469 0.294305 -0.152483
vn 0.472023 0.156187 0.867640
vn 0.392948 0.071599 0.916769
vn 0.673254 0.409606 0.615591
vn -0.881519 0.090264 0.463440
vn -0.914042 0.163759 0.371095
vn -0.903323 0.136174 0.406774
vn -0.271183 -0.003340 -0.962522
vn -0.417787 0.111876 -0.901631
vn -0.482902 0.166028 -0.859791
vn 0.898858 0.397335 -0.184875
vn 0.897145 0.399725 -0.188016
vn 0.904643 0.389027 -0.174006
vn 0.272823 -0.033983 0.961464
vn 0.309361 -0.008015 0.950911
vn 0.166443 -0.106968 0.980232
vn -0.957355 -0.000829 0.288913
vn -0.963971 -0.023666 0.264952
vn -0.939324 0.048538 0.339580
vn -0.665467 -0.120026 -0.736714
vn -0.581075 -0.176616 -0.794455
vn -0.541312 -0.200822 -0.816488
vn 0.806784 -0.338178 -0.484495
vn 0.787511 -0.312042 -0.531466
vn 0.816359 -0.352229 -0.457705
vn 0.300731 -0.592426 0.747390
vn 0.240931 -0.534922 0.809821
vn 0.165277 -0.457815 0.873550
vn -0.959253 -0.140515 0.245131
vn -0.935505 -0.183171 0.302124
vn -0.876066 -0.261114 0.405374
vn -0.526471 -0.076710 -0.846725
vn -0.488306 -0.109745 -0.865744
vn -0.446499 -0.144253 -0.883080
vn 0.764650 -0.382643 -0.518551
vn 0.797045 -0.451262 -0.401350
vn 0.744910 -0.348839 -0.568700
vn -0.597735 0.350384 0.721071
vn -0.597735 0.350384 0.721071
vn -0.597735 0.350384 0.721071
vn -0.667749 0.209746 0.714226
vn -0.709276 0.157971 0.687003
vn -0.599602 0.284775 0.747918
vn -0.626923 0.095560 0.773199
vn -0.469237 -0.032076 0.882490
vn -0.690420 0.154630 0.706690
vn -0.531821 -0.018924 0.846645
vn -0.539703 -0.029530 0.841337
vn -0.488387 0.037170 0.871835
vn -0.431129 -0.357164 0.828590
vn -0.387273 -0.321230 0.864193
vn -0.459200 -0.380156 0.802881
vn -0.078856 -0.394257 0.915611
vn -0.078856 -0.394257 0.915611
vn -0.078856 -0.394257 0.915611
vn -0.898001 0.296099 0.325452
vn -0.898001 0.296099 0.325452
vn -0.898001 0.296099 0.325452
vn -0.968391 0.239069 -0.071166
vn -0.965028 0.203143 -0.165692
vn -0.827338 0.379957 0.413696
vn -0.936590 0.128285 -0.326102
vn -0.865357 0.048032 -0.498850
vn -0.962606 0.178836 -0.203487
vn -0.750339 -0.197564 -0.630841
vn -0.783986 -0.244858 -0.570448
vn -0.718262 -0.157073 -0.677811
vn -0.854450 -0.073009 -0.514379
vn -0.860957 -0.064919 -0.504519
vn -0.835277 -0.095602 -0.541454
vn -0.762409 -0.549769 -0.341301
vn -0.762409 -0.549769 -0.341301
vn -0.762409 -0.549769 -0.341301
vn 0.871746 0.345386 -0.347516
vn 0.871746 0.345386 -0.347516
vn 0.871746 0.345386 -0.347516
vn 0.205069 0.196707 -0.958777
vn 0.729990 0.329970 -0.598527
vn 0.405386 0.255002 -0.877859
vn 0.216549 0.137150 -0.966590
vn 0.210453 0.132172 -0.968628
vn 0.209361 0.131281 -0.968986
vn 0.368099 -0.166055 -0.914838
vn 0.216987 -0.047508 -0.975018
vn 0.305389 -0.116247 -0.945106
vn 0.613523 -0.303925 -0.728848
vn 0.595740 -0.294815 -0.747114
vn 0.598096 -0.296021 -0.744750
vn 0.714448 -0.492665 -0.496836
vn 0.714448 -0.492665 -0.496836
vn 0.714448 -0.492665 -0.496836
vn 0.935101 0.175833 0.307683
vn 0.935101 0.175833 0.307682
vn 0.935101 0.175833 0.307683
vn 0.916663 0.269743 0.294901
vn 0.917679 0.276405 0.285423
vn 0.914768 0.258940 0.310078
vn 0.908504 0.372157 0.190052
vn 0.903877 0.379122 0.198175
vn 0.886093 0.403910 0.227366
vn 0.922195 -0.306984 0.235196
vn 0.916386 -0.163621 0.365330
vn 0.921854 -0.310897 0.231362
vn 0.816026 -0.420494 0.396594
vn 0.806638 -0.364448 0.465310
vn 0.818031 -0.442971 0.366882
vn 0.815572 -0.349923 0.460864
vn 0.815572 -0.349923 0.460864
vn 0.815572 -0.349923 0.460864
vn 0.949058 0.315069 0.004582
vn 0.918919 0.285900 0.271753
vn 0.920854 0.352300 0.167069
vn 0.642298 0.472551 0.603447
vn 0.163055 -0.148997 0.975301
vn 0.893880 0.404200 -0.193912
vn 0.900713 -0.417431 0.120279
vn 0.619797 0.237426 0.747985
vn 0.775348 -0.296653 -0.557524
vn 0.818844 -0.461826 0.340897
vn 0.809376 -0.489549 -0.324426
vn 0.353117 -0.639894 0.682528
vn -0.741921 0.113011 0.660895
vn -0.732233 0.197293 0.651852
vn -0.560000 -0.057520 0.826494
vn -0.243091 -0.202981 0.948528
vn -0.987561 -0.064831 0.143247
vn -0.980251 -0.129874 0.149131
vn -0.924269 0.196242 0.327438
vn -0.887252 0.048432 0.458736
vn -0.960671 0.187434 -0.204887
vn -0.706447 -0.066899 -0.704597
vn -0.684855 -0.118244 -0.719021
vn -0.870489 -0.052625 -0.489366
vn -0.447867 0.116402 -0.886491
vn -0.689164 0.357036 -0.630538
vn -0.497204 -0.226116 -0.837651
vn -0.405440 -0.176605 -0.896900
vn 0.871842 0.345696 -0.346967
vn 0.082202 0.028038 -0.996221
vn 0.586252 -0.348357 -0.731407
vn 0.657242 -0.326355 -0.679356
s off
g textureBakeSet1 diamond_C_GEO
usemtl lambert2SG
f 1/1/1 19/2/2 27/50/3
f 21/4/4 37/43/5 1/44/6
f 1/1/7 22/6/8 42/7/9
f 1/44/10 20/8/11 32/9/12
f 2/10/13 23/11/14 3/12/15
f 2/49/16 28/13/17 4/14/18
f 2/49/19 33/48/20 5/16/21
f 2/10/22 38/17/23 6/18/24
s 1
f 23/11/25 7/19/26 3/12/27
s 2
f 28/13/28 29/20/29 4/14/30
s 3
f 5/16/31 34/47/32 9/22/33
s 4
f 6/18/34 39/23/35 10/24/36
s 5
f 24/53/37 11/26/38 7/19/39
s 6
f 29/20/40 30/27/41 8/28/42
s 7
f 9/22/43 34/47/44 13/29/45
s 8
f 39/23/46 14/30/47 10/24/48
s 9
f 25/31/49 15/32/50 11/26/51
s 10
f 30/27/52 16/33/53 12/34/54
s 11
f 13/29/55 35/35/56 17/36/57
s 12
f 40/37/58 18/38/59 14/30/60
s 13
f 15/32/61 27/50/62 19/2/63
s 14
f 16/33/64 32/9/65 20/8/66
s 15
f 17/36/67 36/45/68 21/4/69
s 16
f 41/40/70 22/6/71 18/38/72
s off
f 4/14/73 23/54/74 2/49/75
s 17
f 4/14/76 24/25/77 23/54/78
s 18
f 12/34/79 25/52/80 24/25/81
s 19
f 12/34/82 26/41/83 25/52/84
s 20
f 16/33/85 27/3/86 26/41/87
s off
f 1/44/88 27/3/89 20/8/90
f 5/16/91 28/13/92 2/49/93
s 21
f 5/16/94 29/20/95 28/13/96
s 22
f 9/22/97 30/27/98 29/20/99
s 23
f 17/36/100 31/42/101 30/27/102
s 24
f 17/36/103 32/9/104 31/42/105
s off
f 1/44/106 32/9/107 21/4/108
f 2/10/109 6/18/110 33/15/111
s 25
f 34/21/112 33/15/113 10/24/114
s 26
f 35/46/115 34/21/116 14/30/117
s 27
f 36/39/118 35/46/119 14/30/120
s 28
f 37/5/121 36/39/122 18/38/123
s off
f 1/1/124 37/5/125 22/6/126
f 3/12/127 38/17/128 2/10/129
s 29
f 3/12/130 39/23/131 38/17/132
s 30
f 11/26/133 39/23/134 7/19/135
s 31
f 15/32/136 41/40/137 40/37/138
s 32
f 19/2/139 42/7/140 41/40/141
s off
f 1/1/142 42/7/143 19/2/144
s 4
f 38/17/145 39/23/35 6/18/34
s 29
f 7/19/146 39/23/131 3/12/130
s 30
f 11/26/133 40/37/147 39/23/134
s 1
f 23/11/25 24/53/148 7/19/26
s 5
f 24/53/37 25/31/149 11/26/38
s 8
f 39/23/46 40/37/150 14/30/47
s 31
f 15/32/136 40/37/138 11/26/151
s 9
f 25/31/49 26/51/152 15/32/50
s 12
f 40/37/58 41/40/153 18/38/59
s 32
f 19/2/139 41/40/141 15/32/154
s 16
f 41/40/70 42/7/155 22/6/71
s 13
f 26/51/156 27/50/62 15/32/61
s 17
f 8/28/157 24/25/77 4/14/76
s 18
f 12/34/79 24/25/81 8/28/158
s 19
f 16/33/159 26/41/83 12/34/82
s 20
f 20/8/160 27/3/86 16/33/85
s 14
f 31/42/161 32/9/65 16/33/64
s 10
f 30/27/52 31/42/162 16/33/53
s 6
f 8/28/42 30/27/41 12/34/163
s 2
f 4/14/30 29/20/29 8/28/164
s 21
f 9/22/165 29/20/95 5/16/94
s 22
f 13/29/166 30/27/98 9/22/97
s 23
f 17/36/100 30/27/102 13/29/167
s 24
f 21/4/168 32/9/104 17/36/103
s 3
f 5/16/31 33/48/169 34/47/32
s 7
f 13/29/45 34/47/44 35/35/170
s 11
f 17/36/57 35/35/56 36/45/171
s 15
f 21/4/69 36/45/68 37/43/172
s 25
f 10/24/114 33/15/113 6/18/173
s 26
f 14/30/117 34/21/116 10/24/174
s 27
f 36/39/118 14/30/120 18/38/175
s 28
f 37/5/121 18/38/123 22/6/176
